<?xml version="1.0"?>
<svg xmlns="http://www.w3.org/2000/svg" version="1.1" width="600" height="400" style="font-family:dosis, sans-serif;font-size:12;background-color: white;">
<desc/>
<defs>
    <clipPath>
        <rect x="0" y="0" width="580" height="286"/>
    </clipPath>
</defs>
<g class="highcharts-series-group">
    <g class="highcharts-series highcharts-series-0" transform="translate(10,60) scale(1 1)">
        <path fill="#f0ff00" d="M288.98 35A107 107 0 0 1 356.1 58.65L289 142A0 0 0 0 0 289 142Z" stroke="#FFFFFF" stroke-width="1" stroke-linejoin="round" transform="translate(0,0)"/>
        <path fill="#ffb400" d="M356.18 58.72A107 107 0 0 1 391.35 173.21L289 142A0 0 0 0 0 289 142Z" stroke="#FFFFFF" stroke-width="1" stroke-linejoin="round" transform="translate(0,0)"/>
        <path fill="#ff0f0f" d="M391.32 173.31A107 107 0 0 1 212.9 217.22L289 142A0 0 0 0 0 289 142Z" stroke="#FFFFFF" stroke-width="1" stroke-linejoin="round" transform="translate(0,0)"/>
        <path fill="#24CBE5" d="M212.83 217.14A107 107 0 0 1 189.74 181.95L289 142A0 0 0 0 0 289 142Z" stroke="#FFFFFF" stroke-width="1" stroke-linejoin="round" transform="translate(0,0)"/>
        <path fill="#54ba19" d="M189.7 181.85A107 107 0 0 1 228.99 53.41L289 142A0 0 0 0 0 289 142Z" stroke="#FFFFFF" stroke-width="1" stroke-linejoin="round" transform="translate(0,0)"/>
        <path fill="#5eff00" d="M229.08 53.35A107 107 0 0 1 288.85 35L289 142A0 0 0 0 0 289 142Z" stroke="#FFFFFF" stroke-width="1" stroke-linejoin="round" transform="translate(0,0)"/>
    </g>
    <g class="highcharts-markers highcharts-series-0" transform="translate(10,60) scale(1 1)"/>
</g>
<text x="300" text-anchor="middle" class="highcharts-title" y="22" style="fill:#333;font-family:dosis, sans-serif;font-size:16;font-weight:bold;text-transform:uppercase;width:536">
    <tspan>Bolsa de caramelos Sugus de 700g</tspan>
</text>
<text x="300" text-anchor="middle" class="highcharts-subtitle" y="44" style="fill:#666;font-family:dosis, sans-serif;font-size:12;width:536">
    <tspan>en base al </tspan>
    <tspan dx="0">tweet de @MarcePe</tspan>
</text>
<g class="highcharts-data-labels highcharts-series-0" visibility="visible" transform="translate(10,60) scale(1 1)" opacity="1">
    <path fill="none" d="M339.64 12.83C334.64 12.83 331.98 20.37 328.31 30.74L324.65 41.11" stroke="#f0ff00" stroke-width="1"/>
    <path fill="none" d="M424.99 101.88C419.99 101.88 412.35 104.23 401.83 107.45L391.31 110.67" stroke="#ffb400" stroke-width="1"/>
    <path fill="none" d="M326.64 275.05C321.64 275.05 319.74 267.29 317.11 256.6L314.49 245.92" stroke="#ff0f0f" stroke-width="1"/>
    <path fill="none" d="M169.42 217.1C174.42 217.1 181.11 212.72 190.31 206.69L199.51 200.66" stroke="#24CBE5" stroke-width="1"/>
    <path fill="none" d="M153.01 101.88C158.01 101.88 165.65 104.23 176.17 107.45L186.69 110.67" stroke="#54ba19" stroke-width="1"/>
    <path fill="none" d="M243.88 11.01C248.88 11.01 251.23 18.65 254.45 29.17L257.67 39.69" stroke="#5eff00" stroke-width="1"/>
    <g transform="translate(345,3)" cursor="pointer">
        <text x="5" y="15" style="fill:#333;font-family:'arial', sans-serif;font-size:10;font-weight:bold;text-rendering:geometricprecision;text-shadow:0">
            <tspan>Lim&#xF3;n : 24 Caramelos</tspan>
        </text>
    </g>
    <g transform="translate(430,92)" cursor="pointer">
        <text x="5" y="15" style="fill:#333;font-family:'arial', sans-serif;font-size:10;font-weight:bold;text-rendering:geometricprecision;text-shadow:0">
            <tspan>Naranja : 42 Caramelos</tspan>
        </text>
    </g>
    <g transform="translate(332,265)" cursor="pointer">
        <text x="5" y="15" style="fill:#333;font-family:'arial', sans-serif;font-size:10;font-weight:bold;text-rendering:geometricprecision;text-shadow:0">
            <tspan>Frutilla : 73 Caramelos</tspan>
        </text>
    </g>
    <g transform="translate(46,207)" cursor="pointer">
        <text x="5" y="15" style="fill:#333;font-family:'arial', sans-serif;font-size:10;font-weight:bold;text-rendering:geometricprecision;text-shadow:0">
            <tspan>Anan&#xE1; : 14 Caramelos</tspan>
        </text>
    </g>
    <g transform="translate(31,92)" cursor="pointer">
        <text x="5" y="15" style="fill:#333;font-family:'arial', sans-serif;font-size:10;font-weight:bold;text-rendering:geometricprecision;text-shadow:0">
            <tspan>Menta : 48 Caramelos</tspan>
        </text>
    </g>
    <g transform="translate(108,1)" cursor="pointer">
        <text x="5" y="15" style="fill:#333;font-family:'arial', sans-serif;font-size:10;font-weight:bold;text-rendering:geometricprecision;text-shadow:0">
            <tspan>Manzana : 21 Caramelos</tspan>
        </text>
    </g>
</g>
<g class="highcharts-legend" transform="translate(68,358)">
    <g class="highcharts-legend-item" transform="translate(8,3)">
        <text x="21" text-anchor="start" y="16" style="cursor:pointer;fill:#333;font-family:dosis, sans-serif;font-size:13;font-weight:bold;text-transform:none">Lim&#xF3;n</text>
        <rect x="0" y="4" width="16" height="13" fill="#f0ff00"/>
    </g>
    <g class="highcharts-legend-item" transform="translate(81,3)">
        <text x="21" y="16" text-anchor="start" style="cursor:pointer;fill:#333;font-family:dosis, sans-serif;font-size:13;font-weight:bold;text-transform:none">Naranja</text>
        <rect x="0" y="4" width="16" height="13" fill="#ffb400"/>
    </g>
    <g class="highcharts-legend-item" transform="translate(163,3)">
        <text x="21" y="16" text-anchor="start" style="cursor:pointer;fill:#333;font-family:dosis, sans-serif;font-size:13;font-weight:bold;text-transform:none">Frutilla</text>
        <rect x="0" y="4" width="16" height="13" fill="#ff0f0f"/>
    </g>
    <g class="highcharts-legend-item" transform="translate(240.78125,3)">
        <text x="21" y="16" text-anchor="start" style="cursor:pointer;fill:#333;font-family:dosis, sans-serif;font-size:13;font-weight:bold;text-transform:none">Anan&#xE1;</text>
        <rect x="0" y="4" width="16" height="13" fill="#24CBE5"/>
    </g>
    <g class="highcharts-legend-item" transform="translate(314.78125,3)">
        <text x="21" y="16" text-anchor="start" style="cursor:pointer;fill:#333;font-family:dosis, sans-serif;font-size:13;font-weight:bold;text-transform:none">Menta</text>
        <rect x="0" y="4" width="16" height="13" fill="#54ba19"/>
    </g>
    <g class="highcharts-legend-item" transform="translate(387.703125,3)">
        <text x="21" y="16" text-anchor="start" style="cursor:pointer;fill:#333;font-family:dosis, sans-serif;font-size:13;font-weight:bold;text-transform:none">Manzana</text>
        <rect x="0" y="4" width="16" height="13" fill="#5eff00"/>
    </g>
</g>
<g class="highcharts-tooltip" transform="translate(0,-9999)" style="cursor:default;padding:0;pointer-events:none;white-space:nowrap">
    <path fill="rgb(219,219,216)" fill-opacity="0.8" d="M3 0L13 0C16 0 16 0 16 3L16 13C16 16 16 16 13 16L3 16C0 16 0 16 0 13L0 3C0 0 0 0 3 0"/>
    <text x="8" y="20" style="fill:#333;font-size:12"/>
</g>
</svg>
