<?xml version="1.0" standalone="no"?><!DOCTYPE svg PUBLIC "-//W3C//DTD SVG 1.1//EN" "http://www.w3.org/Graphics/SVG/1.1/DTD/svg11.dtd"><svg xmlns:xlink="http://www.w3.org/1999/xlink" version="1.1" style="font-family:dosis, sans-serif;font-size:12px;" xmlns="http://www.w3.org/2000/svg" width="600" height="400"><desc>Created with Highcharts 4.2.0</desc><defs><clipPath id="highcharts-6"><rect x="0" y="0" width="580" height="286"></rect></clipPath></defs><g class="highcharts-series-group" ><g class="highcharts-series highcharts-series-0"  transform="translate(10,60) scale(1 1)"><path fill="#f0ff00" d="M 288.97820696720464 35.00000221932842 A 107 107 0 0 1 356.0973441249258 58.65165621692725 L 289 142 A 0 0 0 0 0 289 142 Z" stroke="#FFFFFF" stroke-width="1" stroke-linejoin="round" transform="translate(0,0)"></path><path fill="#ffb400" d="M 356.1806589061482 58.718795224037706 A 107 107 0 0 1 391.34666888065976 173.21152622081448 L 289 142 A 0 0 0 0 0 289 142 Z" stroke="#FFFFFF" stroke-width="1" stroke-linejoin="round" transform="translate(0,0)"></path><path fill="#ff0f0f" d="M 391.3154061863107 173.31385726687554 A 107 107 0 0 1 212.90160456143064 217.21990568775743 L 289 142 A 0 0 0 0 0 289 142 Z" stroke="#FFFFFF" stroke-width="1" stroke-linejoin="round" transform="translate(0,0)"></path><path fill="#24CBE5" d="M 212.8264227174741 217.14376969505224 A 107 107 0 0 1 189.73611635006463 181.94598105857577 L 289 142 A 0 0 0 0 0 289 142 Z" stroke="#FFFFFF" stroke-width="1" stroke-linejoin="round" transform="translate(0,0)"></path><path fill="#54ba19" d="M 189.69622000760143 181.84669721848095 A 107 107 0 0 1 228.99109951992426 53.411446206790544 L 289 142 A 0 0 0 0 0 289 142 Z" stroke="#FFFFFF" stroke-width="1" stroke-linejoin="round" transform="translate(0,0)"></path><path fill="#5eff00" d="M 229.0797180634005 53.35148161058514 A 107 107 0 0 1 288.85137914662636 35.00010321574163 L 289 142 A 0 0 0 0 0 289 142 Z" stroke="#FFFFFF" stroke-width="1" stroke-linejoin="round" transform="translate(0,0)"></path></g><g class="highcharts-markers highcharts-series-0"  transform="translate(10,60) scale(1 1)"></g></g><text x="300" text-anchor="middle" class="highcharts-title"  style="color:#333;font-size:16px;font-family:dosis, sans-serif;font-weight:bold;text-transform:uppercase;fill:#333;width:536px;" y="22"><tspan>Bolsa de caramelos Sugus de 700g</tspan></text><text x="300" text-anchor="middle" class="highcharts-subtitle"  style="color:#666666;font-size:12px;font-family:dosis, sans-serif;fill:#666666;width:536px;" y="44"><tspan>en base al </tspan><tspan dx="0">tweet de @MarcePe</tspan></text><g class="highcharts-data-labels highcharts-series-0"  visibility="visible" transform="translate(10,60) scale(1 1)" opacity="1"><path fill="none" d="M 339.6401518796618 12.825789971831465 C 334.6401518796618 12.825789971831465 331.9750335217254 20.368809535520143 328.31049577956276 30.740461435592067 L 324.64595803740013 41.11211333566399" stroke="#f0ff00" stroke-width="1"></path><path fill="none" d="M 424.99484265927737 101.8832803351126 C 419.99484265927737 101.8832803351126 412.3455087813633 104.22586250532501 401.8276746992316 107.44691298936706 L 391.30984061709984 110.66796347340912" stroke="#ffb400" stroke-width="1"></path><path fill="none" d="M 326.64142702497367 275.05464006104154 C 321.64142702497367 275.05464006104154 319.73535829358826 267.28502604287854 317.11451378793345 256.6018067679044 L 314.49366928227863 245.91858749293027" stroke="#ff0f0f" stroke-width="1"></path><path fill="none" d="M 169.41993917168864 217.10266080892518 C 174.41993917168864 217.10266080892518 181.11074564341484 212.7171039733675 190.3106045420384 206.6869633244757 L 199.51046344066194 200.6568226755839" stroke="#24CBE5" stroke-width="1"></path><path fill="none" d="M 153.00515734072263 101.88328033511259 C 158.00515734072263 101.88328033511259 165.65449121863662 104.225862505325 176.1723253007684 107.44691298936705 L 186.69015938290016 110.6679634734091" stroke="#54ba19" stroke-width="1"></path><path fill="none" d="M 243.88328033511254 11.005157340722619 C 248.88328033511254 11.005157340722619 251.22586250532504 18.65449121863663 254.4469129893671 29.17232530076839 L 257.66796347340915 39.69015938290015" stroke="#5eff00" stroke-width="1"></path><g  style="cursor:pointer;" transform="translate(345,3)"><text x="5"  style="font-size:10px;font-weight:bold;font-family:'arial', sans-serif;color:#333;text-shadow:0 0 6px #ffffff, 0 0 3px #ffffff;fill:#333;text-rendering:geometricprecision;" y="15"><tspan>Lim칩n : 24 Caramelos</tspan></text></g><g  style="cursor:pointer;" transform="translate(430,92)"><text x="5"  style="font-size:10px;font-weight:bold;font-family:'arial', sans-serif;color:#333;text-shadow:0 0 6px #ffffff, 0 0 3px #ffffff;fill:#333;text-rendering:geometricprecision;" y="15"><tspan>Naranja : 42 Caramelos</tspan></text></g><g  style="cursor:pointer;" transform="translate(332,265)"><text x="5"  style="font-size:10px;font-weight:bold;font-family:'arial', sans-serif;color:#333;text-shadow:0 0 6px #ffffff, 0 0 3px #ffffff;fill:#333;text-rendering:geometricprecision;" y="15"><tspan>Frutilla : 73 Caramelos</tspan></text></g><g  style="cursor:pointer;" transform="translate(46,207)"><text x="5"  style="font-size:10px;font-weight:bold;font-family:'arial', sans-serif;color:#333;text-shadow:0 0 6px #ffffff, 0 0 3px #ffffff;fill:#333;text-rendering:geometricprecision;" y="15"><tspan>Anan치 : 14 Caramelos</tspan></text></g><g  style="cursor:pointer;" transform="translate(31,92)"><text x="5"  style="font-size:10px;font-weight:bold;font-family:'arial', sans-serif;color:#333;text-shadow:0 0 6px #ffffff, 0 0 3px #ffffff;fill:#333;text-rendering:geometricprecision;" y="15"><tspan>Menta : 48 Caramelos</tspan></text></g><g  style="cursor:pointer;" transform="translate(108,1)"><text x="5"  style="font-size:10px;font-weight:bold;font-family:'arial', sans-serif;color:#333;text-shadow:0 0 6px #ffffff, 0 0 3px #ffffff;fill:#333;text-rendering:geometricprecision;" y="15"><tspan>Manzana : 21 Caramelos</tspan></text></g></g><g class="highcharts-legend"  transform="translate(68,358)"><g ><g><g class="highcharts-legend-item"  transform="translate(8,3)"><text x="21" style="color:#333;font-size:13px;font-weight:bold;cursor:pointer;font-family:dosis, sans-serif;text-transform:none;fill:#333;" text-anchor="start"  y="16">Lim칩n</text><rect x="0" y="4" width="16" height="13"  fill="#f0ff00"></rect></g><g class="highcharts-legend-item"  transform="translate(81,3)"><text x="21" y="16" style="color:#333;font-size:13px;font-weight:bold;cursor:pointer;font-family:dosis, sans-serif;text-transform:none;fill:#333;" text-anchor="start" >Naranja</text><rect x="0" y="4" width="16" height="13"  fill="#ffb400"></rect></g><g class="highcharts-legend-item"  transform="translate(163,3)"><text x="21" y="16" style="color:#333;font-size:13px;font-weight:bold;cursor:pointer;font-family:dosis, sans-serif;text-transform:none;fill:#333;" text-anchor="start" >Frutilla</text><rect x="0" y="4" width="16" height="13"  fill="#ff0f0f"></rect></g><g class="highcharts-legend-item"  transform="translate(240.78125,3)"><text x="21" y="16" style="color:#333;font-size:13px;font-weight:bold;cursor:pointer;font-family:dosis, sans-serif;text-transform:none;fill:#333;" text-anchor="start" >Anan치</text><rect x="0" y="4" width="16" height="13"  fill="#24CBE5"></rect></g><g class="highcharts-legend-item"  transform="translate(314.78125,3)"><text x="21" y="16" style="color:#333;font-size:13px;font-weight:bold;cursor:pointer;font-family:dosis, sans-serif;text-transform:none;fill:#333;" text-anchor="start" >Menta</text><rect x="0" y="4" width="16" height="13"  fill="#54ba19"></rect></g><g class="highcharts-legend-item"  transform="translate(387.703125,3)"><text x="21" y="16" style="color:#333;font-size:13px;font-weight:bold;cursor:pointer;font-family:dosis, sans-serif;text-transform:none;fill:#333;" text-anchor="start" >Manzana</text><rect x="0" y="4" width="16" height="13"  fill="#5eff00"></rect></g></g></g></g><g class="highcharts-tooltip"  style="cursor:default;padding:0;pointer-events:none;white-space:nowrap;" transform="translate(0,-9999)"><path fill="rgb(219,219,216)" fill-opacity="0.8" d="M 3 0 L 13 0 C 16 0 16 0 16 3 L 16 13 C 16 16 16 16 13 16 L 3 16 C 0 16 0 16 0 13 L 0 3 C 0 0 0 0 3 0"></path><text x="8"  style="font-size:12px;color:#333;fill:#333;" y="20"></text></g><text x="590" text-anchor="end"  style="cursor:pointer;color:#909090;font-size:9px;fill:#909090;" y="395">meta-chart.com</text></svg>
